<?xml version="1.0" encoding="UTF-8"?>
<!DOCTYPE svg PUBLIC "-//W3C//DTD SVG 1.1//EN" "http://www.w3.org/Graphics/SVG/1.1/DTD/svg11.dtd">
<!-- Creator: CorelDRAW X8 -->
<svg xmlns="http://www.w3.org/2000/svg" xml:space="preserve" width="17px" height="24px" version="1.1" style="shape-rendering:geometricPrecision; text-rendering:geometricPrecision; image-rendering:optimizeQuality; fill-rule:evenodd; clip-rule:evenodd"
viewBox="0 0 17 24"
 xmlns:xlink="http://www.w3.org/1999/xlink">
 <defs>
  <style type="text/css">
   <![CDATA[
    .str0 {stroke:#2B2A29;stroke-width:0.0161905}
    .fil0 {fill:none}
   ]]>
  </style>
 </defs>
 <g id="Warstwa_x0020_1">
  <metadata id="CorelCorpID_0Corel-Layer"/>
  <path class="fil0 str0" d="M0 15c1,2 2,4 2,4 0,0 1,0 1,0 0,0 0,0 0,-1 -1,0 0,0 0,0 1,-1 2,-2 3,-2 0,0 0,0 -1,0 -1,0 -2,1 -2,1 0,0 -1,1 -1,1 0,0 1,-2 1,-2 0,0 0,0 0,0 0,0 0,0 -1,0 0,1 0,1 0,2 0,0 0,-1 0,-1 0,0 -1,-2 -2,-2z"/>
 </g>
</svg>
