<?xml version="1.0" standalone="no"?>
<!DOCTYPE svg PUBLIC "-//W3C//DTD SVG 20010904//EN"
 "http://www.w3.org/TR/2001/REC-SVG-20010904/DTD/svg10.dtd">
<svg version="1.0" xmlns="http://www.w3.org/2000/svg"
 width="684.000000pt" height="684.000000pt" viewBox="0 0 684.000000 684.000000"
 preserveAspectRatio="xMidYMid meet">
<metadata>
Created by potrace 1.11, written by Peter Selinger 2001-2013
</metadata>
<g transform="translate(0.000000,684.000000) scale(0.100000,-0.100000)"
fill="#000000" stroke="none">
<path d="M5298 6635 c-2 -2 -27 -6 -56 -10 -29 -3 -79 -12 -110 -20 -67 -17
-73 -18 -257 -44 -221 -31 -389 -42 -669 -42 -332 0 -528 16 -786 63 -63 11
-128 21 -145 23 -16 1 -83 8 -148 15 -175 19 -593 8 -761 -19 -607 -99 -1144
-362 -1570 -771 -427 -410 -704 -958 -781 -1543 -20 -156 -20 -478 0 -634 30
-230 92 -458 181 -672 44 -104 127 -266 163 -319 10 -15 33 -53 51 -84 19 -32
43 -68 54 -80 12 -13 34 -39 49 -58 16 -19 100 -109 186 -200 254 -265 316
-341 388 -468 69 -123 127 -328 148 -517 3 -33 8 -80 11 -105 6 -62 33 -257
40 -300 24 -141 106 -336 185 -440 173 -229 447 -277 741 -129 102 51 147 83
373 264 202 163 311 235 428 284 77 31 218 75 277 85 19 3 44 7 55 10 11 2 45
7 75 11 30 3 66 8 80 10 48 7 267 16 520 21 329 6 345 7 514 30 141 19 374 87
479 140 299 151 462 376 513 709 4 22 8 204 9 405 3 460 11 540 77 734 83 245
220 465 543 871 61 77 142 181 181 230 361 467 499 793 495 1175 -1 63 -3 124
-5 135 -1 11 -6 45 -10 75 -18 125 -72 295 -136 422 -202 399 -541 646 -1010
733 -38 7 -366 16 -372 10z"/>
</g>
</svg>
