<?xml version="1.0" standalone="no"?>
<!DOCTYPE svg PUBLIC "-//W3C//DTD SVG 20010904//EN"
 "http://www.w3.org/TR/2001/REC-SVG-20010904/DTD/svg10.dtd">
<svg version="1.0" xmlns="http://www.w3.org/2000/svg"
 width="200.000000pt" height="200.000000pt" viewBox="0 0 200.000000 200.000000"
 preserveAspectRatio="xMidYMid meet">
<metadata>
Created by potrace 1.11, written by Peter Selinger 2001-2013
</metadata>
<g transform="translate(0.000000,200.000000) scale(0.100000,-0.100000)"
fill="#000000" stroke="none">
<path d="M5 1659 c-4 -12 -1 -27 8 -37 8 -9 30 -44 48 -77 18 -33 41 -69 51
-79 9 -10 15 -22 13 -26 -3 -4 2 -13 10 -20 8 -7 15 -21 15 -31 0 -11 4 -19 9
-19 5 0 8 -11 5 -25 -3 -17 2 -27 16 -35 12 -7 17 -16 13 -27 -5 -13 -2 -15
11 -10 14 6 17 3 12 -9 -4 -11 1 -18 14 -21 11 -3 20 -12 20 -19 0 -8 7 -14
15 -14 13 0 13 -3 3 -20 -10 -16 -9 -22 10 -39 16 -13 19 -21 10 -24 -10 -4
-10 -8 2 -16 10 -7 16 -7 21 0 3 6 7 -2 7 -18 3 -81 21 -119 51 -108 8 3 12 3
8 -1 -4 -4 0 -18 9 -32 12 -18 13 -26 5 -32 -9 -5 -7 -11 4 -20 13 -11 18 -10
29 5 9 13 15 15 20 6 4 -6 0 -14 -8 -17 -9 -3 -16 -15 -16 -25 0 -20 33 -83
56 -106 7 -8 14 -19 14 -24 0 -5 3 -8 8 -8 19 3 33 -2 27 -11 -3 -5 1 -19 9
-31 8 -12 12 -28 9 -36 -4 -11 1 -13 23 -8 27 5 28 5 7 -6 -28 -15 -28 -20 -3
-47 11 -11 17 -27 14 -35 -3 -8 -1 -18 5 -22 6 -3 11 -17 11 -31 0 -14 4 -22
10 -19 6 3 10 -5 10 -19 0 -13 4 -26 9 -28 4 -1 15 -23 23 -47 l14 -44 80 -19
c43 -11 90 -17 104 -13 14 3 34 7 45 9 32 6 55 17 55 28 0 5 5 6 12 2 7 -5 9
-2 5 9 -4 11 -2 14 9 10 20 -7 19 50 -2 68 -23 19 -74 124 -74 152 0 28 36 85
88 141 42 44 317 287 407 361 95 77 277 193 447 285 152 82 194 117 128 106
-17 -2 -91 -34 -165 -70 -74 -36 -142 -66 -150 -66 -8 0 -15 -4 -15 -10 0 -5
-8 -10 -18 -10 -11 0 -32 -11 -48 -25 -16 -14 -36 -25 -45 -25 -9 0 -29 -11
-44 -24 -16 -14 -32 -23 -36 -20 -4 2 -10 -3 -13 -12 -3 -8 -10 -13 -15 -10
-14 9 -41 -4 -41 -20 0 -13 -12 -18 -32 -15 -5 0 -8 -4 -8 -10 0 -5 -4 -8 -9
-5 -4 3 -16 -3 -26 -14 -10 -11 -22 -17 -26 -14 -5 3 -9 0 -9 -5 0 -6 -5 -11
-11 -11 -6 0 -34 -17 -61 -37 -28 -20 -75 -53 -106 -74 -30 -21 -93 -72 -140
-115 -77 -71 -84 -75 -78 -48 3 16 10 72 16 124 9 82 18 143 34 225 2 11 11
77 21 147 13 95 14 131 6 147 -18 32 -31 25 -31 -15 0 -42 -25 -143 -47 -194
-9 -19 -37 -80 -63 -135 -44 -90 -73 -178 -82 -244 -3 -21 -6 -19 -34 25 -28
44 -87 146 -116 199 -53 97 -127 218 -159 260 -108 143 -129 168 -182 214 -84
74 -217 108 -232 60z m356 -601 c8 -15 8 -18 0 -14 -6 4 -16 16 -22 28 -8 15
-8 18 0 14 6 -4 16 -16 22 -28z"/>
</g>
</svg>
